<?xml version="1.0" encoding="utf-8"?>
<!-- Generator: Adobe Illustrator 28.1.0, SVG Export Plug-In . SVG Version: 6.00 Build 0)  -->
<svg version="1.1" id="google" xmlns="http://www.w3.org/2000/svg" xmlns:xlink="http://www.w3.org/1999/xlink" x="0px" y="0px"
	 viewBox="0 0 2443 2500" style="enable-background:new 0 0 2443 2500;" xml:space="preserve">
<style type="text/css">
	.st0{fill:#4285F4;}
	.st1{fill:#34A853;}
	.st2{fill:#FBBC05;}
	.st3{fill:#EB4335;}
</style>
<path class="st0" d="M2205.1,1322.7c0-86.4-7-149.4-22.2-214.8h-986.5v389.9h579c-11.7,96.9-74.7,242.8-214.8,340.9l-2,13.1
	l311.9,241.6l21.6,2.2C2090.7,1912.2,2205.1,1642.5,2205.1,1322.7"/>
<path class="st1" d="M1196.4,2350c283.7,0,521.8-93.4,695.8-254.5l-331.5-256.8c-88.7,61.9-207.8,105.1-364.2,105.1
	c-277.8,0-513.7-183.3-597.7-436.6l-12.3,1l-324.3,251l-4.2,11.8C430.6,2114.2,785.5,2350,1196.4,2350"/>
<path class="st2" d="M598.7,1507.1c-22.2-65.4-35-135.4-35-207.8c0-72.4,12.8-142.4,33.8-207.8l-0.6-13.9l-328.4-255l-10.7,5.1
	c-71.2,142.4-112.1,302.4-112.1,471.6s40.9,329.2,112.1,471.6L598.7,1507.1"/>
<path class="st3" d="M1196.4,654.9c197.3,0,330.4,85.2,406.3,156.4l296.5-289.5c-182.1-169.3-419.1-273.2-702.8-273.2
	c-410.9,0-765.8,235.8-938.6,579l339.7,263.8C682.8,838.2,918.6,654.9,1196.4,654.9"/>
</svg>
